# xmcd CD database file
#
# Track frame offsets:
#	150
#	17362
#	33262
#	50800
#	74662
#	96162
#	115500
#	136230
#	159235
#	174975
#	195565
#	221842
#	244237
#	258657
#	274182
#	295775
#
# Disc length: 4195 seconds
#
# Revision: 0
# Processed by: cddbd v1.5.1PL2 Copyright (c) Steve Scherf et al.
# Submitted via: CDex 1.51
#
DISCID=e7106110
DTITLE=Various Artist - The First Touch Vol.2
DYEAR=1993
DGENRE=Pop
TTITLE0=A-HA_TAKE ON ME
TTITLE1=DAVID FOSTERLOVE_THEME FROM"ST ELMO'S FIRE"
TTITLE2=LINEAR_SENDING ALL MY LOVE
TTITLE3=SWEET SENSATION_IF WISHES CAME TRUE
TTITLE4=THE DOOBIE BROTHERS_LISTEN TO THE MUSIC
TTITLE5=EVERYTHING BUT THE GIRL_I DON'T WANT TO TALK ABOUT IT
TTITLE6=NICK KAMEN_EACH TIME YOU BREAK MY HEART
TTITLE7=PRINCE_LITTLE RED CORRETTE
TTITLE8=MR.BIG_TO BE WITH YOU
TTITLE9=GLEEN FREY_THE ONE YOU LOVE
TTITLE10=THE ESCAPE CLUB_I'LL BE THERE
TTITLE11=KARYN WHITE_THE WAY YOU LOVE ME
TTITLE12=BREAD_MAKE IT WITH YOU
TTITLE13=SEALS&CROFTS_SUMMER BREEZE
TTITLE14=DAMN YANKEES_HIGH ENOUGH
TTITLE15=TORI AMOS_SILENT ALL THESE YEARS
EXTD=YEAR: 1993
EXTT0=
EXTT1=
EXTT2=
EXTT3=
EXTT4=
EXTT5=
EXTT6=
EXTT7=
EXTT8=
EXTT9=
EXTT10=
EXTT11=
EXTT12=
EXTT13=
EXTT14=
EXTT15=
PLAYORDER=
